<svg xmlns="http://www.w3.org/2000/svg" viewBox="0 0 20 24" width="20" height="24">
	<defs>
		<filter id="flt1"> <feColorMatrix in="SourceGraphic" type="matrix" values="0 0 0 0 0.075   0 0 0 0 0.427   0 0 0 0 0.706   0 0 0 1 0" /> </filter>
	</defs>
	<style>
		tspan { white-space:pre }
		.shp0 { filter: url(#flt1);fill: #136db3 } 
	</style>
	<path id="Notification" class="shp0" d="M19.89,20.4l-1.71,-2.74c-0.79,-1.27 -1.21,-2.72 -1.21,-4.19v-2.4c0,-3.03 -2.11,-5.6 -4.99,-6.43v-1.72c0,-1.06 -0.9,-1.92 -2,-1.92c-1.1,0 -2,0.86 -2,1.92v1.72c-2.88,0.83 -4.99,3.39 -4.99,6.43v2.4c0,1.48 -0.42,2.92 -1.21,4.19l-1.71,2.74c-0.09,0.15 -0.09,0.33 -0.01,0.48c0.09,0.15 0.25,0.24 0.43,0.24h18.96c0.18,0 0.35,-0.09 0.43,-0.24c0.09,-0.15 0.09,-0.34 -0.01,-0.48zM6.84,22.08c0.56,1.13 1.75,1.92 3.14,1.92c1.39,0 2.58,-0.79 3.14,-1.92z" />
</svg>